<svg xmlns="http://www.w3.org/2000/svg" viewBox="0 0 64 64" role="img" aria-label="Suzuki icon">
  <rect width="64" height="64" rx="12" fill="#ffffff" />
  <g transform="translate(8 7) scale(0.55)">
    <path
      fill="#D52B1E"
      d="M20.518 10.603C11.607 16.482 2.277 20.458.542 21.178l43.999 30.816a.166.166 0 0 1 .071.139v.002a.167.167 0 0 1-.076.139l-1.964 1.293a.17.17 0 0 1-.188-.002l-16.068-11.06c-6.131-4.142-12.894-3.263-17.486-1.795-4.408 1.407-7.656 3.562-8.46 4.124.385.27 33.237 23.229 33.458 23.385.709-.666 5.522-5.061 15.638-11.302 10.667-6.571 16.956-8.868 18.411-9.354l-44.08-30.868a.168.168 0 0 1-.072-.138v-.002a.17.17 0 0 1 .075-.139l1.876-1.244a.168.168 0 0 1 .185 0c.059.038 5.969 3.918 16.593 11.398 9.961 7.008 23.854-1.396 25.764-2.616C67.814 23.675 34.441.424 34.23.276c-.835.712-6.991 5.906-13.712 10.327z"
    />
  </g>
</svg>
